<svg width="284" height="88" viewBox="0 0 284 88" fill="none" xmlns="http://www.w3.org/2000/svg">
<path d="M103.475 29.8285C106.234 29.8285 108.687 30.4198 110.833 31.6022C113.023 32.7847 114.731 34.5366 115.957 36.8578C117.227 39.179 117.862 41.9819 117.862 45.2666V66.6172H110.439V46.3834C110.439 43.1425 109.628 40.668 108.008 38.96C106.387 37.2081 104.176 36.3322 101.373 36.3322C98.5699 36.3322 96.3363 37.2081 94.6721 38.96C93.0516 40.668 92.2414 43.1425 92.2414 46.3834V66.6172H84.7523V18.0036H92.2414V34.6242C93.5115 33.0913 95.11 31.9088 97.037 31.0767C99.0079 30.2446 101.154 29.8285 103.475 29.8285ZM121.962 48.3542C121.962 44.7192 122.707 41.5002 124.196 38.6972C125.729 35.8943 127.787 33.7264 130.371 32.1935C132.999 30.6168 135.889 29.8285 139.043 29.8285C141.889 29.8285 144.364 30.3979 146.466 31.5366C148.612 32.6315 150.32 34.011 151.59 35.6753V30.4198H159.145V66.6172H151.59V61.2303C150.32 62.9383 148.59 64.3617 146.4 65.5004C144.211 66.6391 141.714 67.2084 138.911 67.2084C135.802 67.2084 132.955 66.4201 130.371 64.8434C127.787 63.223 125.729 60.9894 124.196 58.1426C122.707 55.2521 121.962 51.9893 121.962 48.3542ZM151.59 48.4856C151.59 45.9892 151.065 43.8213 150.014 41.9819C149.006 40.1425 147.671 38.741 146.006 37.7775C144.342 36.814 142.546 36.3322 140.619 36.3322C138.692 36.3322 136.897 36.814 135.232 37.7775C133.568 38.6972 132.211 40.0768 131.159 41.9162C130.152 43.7119 129.648 45.8579 129.648 48.3542C129.648 50.8506 130.152 53.0404 131.159 54.9236C132.211 56.8069 133.568 58.2521 135.232 59.2594C136.941 60.223 138.736 60.7047 140.619 60.7047C142.546 60.7047 144.342 60.223 146.006 59.2594C147.671 58.2959 149.006 56.8945 150.014 55.055C151.065 53.1718 151.59 50.982 151.59 48.4856ZM173.515 35.6753C174.61 33.8358 176.055 32.4125 177.85 31.4052C179.69 30.3541 181.858 29.8285 184.354 29.8285V37.5804H182.449C179.515 37.5804 177.281 38.3249 175.748 39.814C174.259 41.3031 173.515 43.887 173.515 47.5659V66.6172H166.026V30.4198H173.515V35.6753ZM185.786 48.3542C185.786 44.7192 186.53 41.5002 188.019 38.6972C189.552 35.8943 191.61 33.7264 194.194 32.1935C196.822 30.6168 199.735 29.8285 202.932 29.8285C205.297 29.8285 207.618 30.3541 209.895 31.4052C212.217 32.4125 214.056 33.7701 215.414 35.4782V18.0036H222.968V66.6172H215.414V61.1646C214.187 62.9164 212.479 64.3617 210.289 65.5004C208.143 66.6391 205.669 67.2084 202.866 67.2084C199.713 67.2084 196.822 66.4201 194.194 64.8434C191.61 63.223 189.552 60.9894 188.019 58.1426C186.53 55.2521 185.786 51.9893 185.786 48.3542ZM215.414 48.4856C215.414 45.9892 214.888 43.8213 213.837 41.9819C212.83 40.1425 211.494 38.741 209.83 37.7775C208.165 36.814 206.37 36.3322 204.443 36.3322C202.516 36.3322 200.72 36.814 199.056 37.7775C197.392 38.6972 196.034 40.0768 194.983 41.9162C193.975 43.7119 193.472 45.8579 193.472 48.3542C193.472 50.8506 193.975 53.0404 194.983 54.9236C196.034 56.8069 197.392 58.2521 199.056 59.2594C200.764 60.223 202.559 60.7047 204.443 60.7047C206.37 60.7047 208.165 60.223 209.83 59.2594C211.494 58.2959 212.83 56.8945 213.837 55.055C214.888 53.1718 215.414 50.982 215.414 48.4856ZM227.353 48.3542C227.353 44.7192 228.097 41.5002 229.586 38.6972C231.119 35.8943 233.177 33.7264 235.761 32.1935C238.389 30.6168 241.28 29.8285 244.433 29.8285C247.28 29.8285 249.754 30.3979 251.856 31.5366C254.002 32.6315 255.71 34.011 256.981 35.6753V30.4198H264.535V66.6172H256.981V61.2303C255.71 62.9383 253.981 64.3617 251.791 65.5004C249.601 66.6391 247.105 67.2084 244.302 67.2084C241.192 67.2084 238.345 66.4201 235.761 64.8434C233.177 63.223 231.119 60.9894 229.586 58.1426C228.097 55.2521 227.353 51.9893 227.353 48.3542ZM256.981 48.4856C256.981 45.9892 256.455 43.8213 255.404 41.9819C254.397 40.1425 253.061 38.741 251.397 37.7775C249.732 36.814 247.937 36.3322 246.01 36.3322C244.083 36.3322 242.287 36.814 240.623 37.7775C238.958 38.6972 237.601 40.0768 236.55 41.9162C235.542 43.7119 235.039 45.8579 235.039 48.3542C235.039 50.8506 235.542 53.0404 236.55 54.9236C237.601 56.8069 238.958 58.2521 240.623 59.2594C242.331 60.223 244.126 60.7047 246.01 60.7047C247.937 60.7047 249.732 60.223 251.397 59.2594C253.061 58.2959 254.397 56.8945 255.404 55.055C256.455 53.1718 256.981 50.982 256.981 48.4856ZM278.905 18.0036V66.6172H271.416V18.0036H278.905Z" fill="white"/>
<rect x="43.5303" width="21.765" height="21.765" fill="#FF0B71"/>
<rect x="43.5303" y="43.5293" width="21.765" height="21.765" fill="#8F00FF"/>
<rect x="21.7646" y="21.7656" width="21.765" height="21.765" fill="#FF0B71"/>
<rect x="21.7646" y="43.5293" width="21.765" height="21.765" fill="#FFD700"/>
<rect y="65.2949" width="21.765" height="21.765" fill="#FFD700"/>
</svg>
